<svg width="597" height="378" viewBox="0 0 597 378" fill="none" xmlns="http://www.w3.org/2000/svg">
<path d="M263.175 218.675C265.647 218.675 267.767 219.028 269.18 219.735C270.946 220.441 272.006 221.854 272.712 223.267C273.419 224.68 273.772 226.447 274.125 228.213V271.312H290.022V233.159C290.022 230.686 290.022 228.213 289.669 225.74C289.669 223.267 289.315 220.794 288.962 218.675C288.609 216.908 288.256 215.142 287.196 213.729C286.489 212.316 285.43 210.903 283.663 209.843C282.25 208.783 280.484 207.723 278.011 207.017C275.892 206.31 273.066 205.957 269.886 205.957C264.941 205.957 260.702 207.017 257.522 208.783C254.343 210.55 251.517 212.669 249.751 214.789L247.985 216.908L247.278 214.436C246.218 212.316 244.452 210.196 241.979 208.43C239.506 206.664 235.974 205.957 231.028 205.957C225.73 205.957 221.49 206.664 218.311 208.43C215.132 210.196 213.012 211.963 211.246 214.082L209.127 217.262L208.42 213.376C208.067 211.256 207.007 209.843 205.241 208.783C203.121 207.723 201.002 207.37 198.176 207.37H195.703C194.996 207.37 194.29 207.37 193.937 207.723H193.583V271.665H209.48V227.507C209.48 224.68 210.893 222.561 213.366 220.794C215.838 219.028 219.018 218.321 222.55 218.321C225.376 218.321 227.496 218.675 228.909 219.735C230.675 220.441 231.735 221.854 232.795 223.267C233.501 224.68 233.854 226.447 234.208 228.566V272.019H250.104V234.219C250.104 231.393 250.104 228.566 249.751 226.093V225.387L250.104 225.034C251.164 223.267 252.93 222.207 255.403 220.794C257.876 219.028 260.348 218.675 263.175 218.675ZM317.222 221.148C320.048 218.321 323.581 217.262 327.82 217.262C333.119 217.262 336.651 218.675 338.771 221.501C340.891 224.327 341.95 227.86 341.95 232.452H313.337C313.337 227.507 314.75 223.974 317.222 221.148ZM355.021 264.6C355.021 263.893 354.667 262.48 353.254 260.007C352.548 258.594 351.841 257.181 350.782 256.121C350.428 256.475 349.722 256.828 349.369 257.535C348.309 258.594 346.896 259.301 345.483 260.361C344.07 261.067 342.304 261.774 340.184 262.48C338.418 263.187 335.945 263.187 333.472 263.187C326.76 263.187 321.815 261.067 318.635 257.535C315.456 254.002 313.69 249.056 313.337 243.757V241.991H355.374V234.572C355.374 230.686 355.021 227.153 353.961 223.621C352.901 220.441 351.488 217.262 349.369 214.789C347.249 212.316 344.423 210.196 340.891 208.43C337.358 207.017 333.119 205.957 328.173 205.957C324.288 205.957 320.402 206.664 316.869 207.723C313.337 209.136 309.804 210.903 306.978 213.729C304.152 216.555 301.679 219.735 299.913 223.974C298.147 228.213 297.44 233.159 297.44 238.811C297.44 245.877 298.5 251.529 300.266 256.121C302.386 260.714 304.859 264.247 308.038 267.073C311.217 269.899 314.75 271.665 318.989 272.725C323.228 273.785 327.467 274.492 331.706 274.492C336.298 274.492 340.537 274.138 344.07 273.078C347.602 272.019 350.075 270.959 351.841 269.546C353.961 267.426 355.021 266.013 355.021 264.6ZM147.307 221.148C150.133 218.321 153.666 217.262 157.905 217.262C163.204 217.262 166.736 218.675 168.856 221.501C170.975 224.327 172.035 227.86 172.035 232.452H143.421C143.421 227.507 144.481 223.974 147.307 221.148ZM185.105 264.6C185.105 263.893 184.752 262.48 183.339 260.007C182.633 258.594 181.926 257.181 180.866 256.121C180.513 256.475 179.806 256.828 179.453 257.535C178.393 258.594 176.98 259.301 175.567 260.361C174.154 261.067 172.388 261.774 170.269 262.48C168.502 263.187 166.03 263.187 163.557 263.187C156.845 263.187 151.899 261.067 148.72 257.535C145.541 254.002 143.775 249.056 143.421 243.757V241.991H185.459V234.572C185.459 230.686 185.105 227.153 184.046 223.621C182.986 220.441 181.573 217.262 179.453 214.789C177.334 212.316 174.508 210.196 170.975 208.43C167.443 207.017 163.204 205.957 158.258 205.957C154.372 205.957 150.486 206.664 146.954 207.723C143.421 209.136 139.889 210.903 137.063 213.729C134.237 216.555 131.764 219.735 129.998 223.974C128.231 228.213 127.525 233.159 127.525 238.811C127.525 245.877 128.585 251.529 130.351 256.121C132.47 260.714 134.943 264.247 138.122 267.073C141.302 269.899 144.834 271.665 149.073 272.725C153.312 273.785 157.551 274.492 161.79 274.492C166.383 274.492 170.622 274.138 174.154 273.078C177.687 272.019 180.16 270.959 181.926 269.546C184.046 267.426 185.105 266.013 185.105 264.6ZM394.232 217.968C397.058 217.968 399.177 218.321 400.944 219.381C402.71 220.441 403.77 221.501 404.83 223.267C405.536 224.68 405.889 226.447 406.243 228.566C406.243 230.333 406.596 232.452 406.596 234.572V272.019H422.492V233.159C422.492 230.686 422.492 228.213 422.139 225.74C422.139 223.267 421.786 220.794 421.079 219.028C420.373 215.142 418.253 211.963 415.427 209.49C412.601 207.017 408.009 205.957 401.65 205.957C396.351 205.957 392.112 206.664 388.933 208.43C385.754 210.196 383.634 211.963 381.868 214.082L379.748 217.262L379.042 213.376C378.689 211.256 377.629 209.843 375.863 208.783C373.743 207.723 371.624 207.37 368.798 207.37H366.325C365.618 207.37 364.912 207.37 364.559 207.723H364.205V271.665H380.102V227.507C380.102 224.68 381.515 222.207 384.694 220.441C386.814 218.675 390.346 217.968 394.232 217.968ZM469.828 250.469C468.415 253.295 466.649 255.062 466.296 255.415C465.589 256.121 464.176 257.535 463.117 258.241C462.057 258.948 460.644 259.654 459.231 260.007C457.818 260.361 456.051 260.714 454.285 260.714C451.106 260.714 448.986 260.007 447.927 258.594C446.514 257.181 445.807 255.062 445.807 252.589C445.807 250.469 446.16 249.056 447.22 247.643C448.28 246.23 449.693 245.17 451.106 244.464C452.872 243.404 454.638 243.05 457.111 242.697C459.584 242.344 461.703 241.991 464.176 241.991H465.943L469.828 241.637V250.469ZM484.665 256.828V229.979C484.665 225.74 484.312 222.207 483.252 219.028C482.546 216.202 480.779 213.729 479.013 211.609C476.893 209.49 474.421 208.077 471.241 207.37C467.709 206.31 463.823 205.957 458.877 205.957C455.345 205.957 451.812 206.31 448.633 207.017C445.454 207.723 442.628 208.43 440.155 209.49C437.682 210.55 435.916 211.256 434.503 212.669C433.443 213.376 433.09 214.436 433.09 215.142C433.09 215.495 433.09 216.555 434.15 218.675C434.856 220.088 435.563 221.148 436.269 222.561C438.742 221.148 441.568 219.735 444.394 218.675C447.927 217.262 451.812 216.555 456.051 216.555C460.997 216.555 464.176 217.262 466.649 219.381C469.122 221.148 470.182 224.327 470.182 228.566V232.806H462.41C459.231 233.159 455.345 233.512 451.459 234.219C447.573 234.925 444.041 235.985 440.508 237.751C437.329 239.518 434.503 241.637 432.383 244.464C430.264 247.29 429.204 250.822 429.204 255.062C429.204 258.594 429.911 261.774 430.97 264.247C432.03 266.72 433.796 268.839 435.563 270.252C437.329 271.665 439.448 272.725 441.921 273.432C444.394 274.138 446.867 274.492 448.986 274.492C453.579 274.492 457.464 273.785 460.644 272.372C463.823 270.959 466.296 269.193 468.415 267.073L470.888 264.6L471.595 267.779C471.948 269.899 473.008 271.312 474.421 272.372C475.834 273.432 477.953 274.138 481.133 274.138C482.546 274.138 483.959 274.138 485.372 273.785C486.078 273.785 487.138 273.432 487.844 273.078C485.725 268.486 484.665 263.54 484.665 256.828ZM115.867 276.258C117.634 272.372 118.693 268.133 119.4 263.893C119.753 259.301 120.106 255.062 120.106 251.529V199.951C120.106 197.832 119.753 196.419 119.047 195.006C118.34 193.946 117.634 192.886 116.574 192.179C115.514 191.473 114.101 191.12 113.041 190.766C111.628 190.413 110.215 190.413 109.156 190.413H107.389C105.976 190.766 105.27 190.766 104.563 190.766H103.504V259.301C103.504 262.834 103.15 266.013 102.09 268.133C101.031 270.606 99.6177 272.372 97.8514 274.138C96.0852 275.551 93.9656 276.611 91.4929 277.318L85.1343 278.378V280.144C85.1343 281.204 85.1343 282.264 85.4875 282.97C85.8408 285.443 86.5473 287.209 87.6071 287.916C88.6668 288.976 90.7863 289.329 93.6124 289.329C99.6177 289.329 104.563 287.916 107.743 285.443C111.275 283.323 114.101 279.791 115.867 276.258Z" fill="#183481"/>
<path d="M446.867 51.2242C447.573 55.4635 447.927 60.056 447.927 64.6485C447.927 115.166 406.949 156.499 356.08 156.499H351.135C364.205 175.929 386.46 189 411.895 189C452.166 189 485.018 156.146 485.018 115.873C485.018 87.9644 469.475 63.5887 446.867 51.2242Z" fill="#26BBD6"/>
<path d="M446.867 51.2242C447.573 55.4635 447.927 60.056 447.927 64.6485C447.927 81.6055 443.334 97.5027 435.209 111.28C448.986 125.764 457.818 145.194 457.818 166.744C457.818 168.863 457.818 170.63 457.465 172.749C474.421 159.325 485.018 138.835 485.018 115.52C485.018 87.9644 469.475 63.5887 446.867 51.2242Z" fill="#183481"/>
<path d="M442.628 49.1047C433.09 44.8655 422.845 42.3926 411.541 42.3926C371.27 42.3926 338.418 75.2468 338.418 115.52C338.418 117.993 338.418 120.465 338.771 122.938C346.189 125.411 354.314 126.471 362.439 126.471C405.889 126.471 441.215 92.2038 442.628 49.1047Z" fill="#7DCCE0"/>
<path d="M377.629 86.9047C393.879 86.9047 409.069 91.8505 421.786 100.329C434.15 86.9047 441.921 68.8879 442.628 49.458C433.09 45.2187 422.846 42.7458 411.542 42.7458C377.982 42.7458 349.722 65.3552 341.244 96.0898C352.195 90.0842 364.559 86.9047 377.629 86.9047Z" fill="#006CB5"/>
<path d="M129.291 289.329H131.764V300.987C132.824 298.161 135.65 296.394 138.829 296.394C144.834 296.394 148.014 301.34 148.014 306.992C148.014 312.645 145.188 317.591 138.829 317.591C135.65 317.591 132.824 315.824 131.764 312.998V316.884H129.644V289.329H129.291ZM138.829 298.514C133.53 298.514 131.764 303.106 131.764 307.346C131.764 311.585 133.53 316.177 138.829 316.177C143.421 316.177 145.541 311.585 145.541 307.346C145.541 303.106 143.775 298.514 138.829 298.514ZM151.899 297.101H154.019V301.693C155.432 298.514 157.905 296.394 161.791 296.748V299.22C157.198 298.867 154.372 302.4 154.372 306.639V317.591H151.899V297.101ZM164.263 289.329H166.736V293.215H164.263V289.329ZM164.263 297.101H166.736V317.237H164.263V297.101ZM171.328 297.101H173.801V300.634C174.861 298.161 177.334 296.394 180.16 296.394C185.812 296.394 187.578 299.22 187.578 304.166V317.237H185.105V304.519C185.105 300.987 184.046 298.514 179.807 298.514C175.921 298.514 173.448 301.34 173.448 305.579V317.591H170.975V297.101H171.328ZM209.833 315.824C209.833 321.83 207.36 325.716 200.649 325.716C196.763 325.716 192.524 323.949 192.17 319.71H194.643C195.35 322.536 197.823 323.596 200.649 323.596C205.241 323.596 207.007 320.77 207.007 315.824V312.998C205.947 315.471 203.475 317.237 200.649 317.237C194.29 317.237 191.464 312.645 191.464 306.639C191.464 300.987 194.643 296.394 200.649 296.394C203.475 296.394 205.947 298.161 207.007 300.634V297.101H209.48V315.824H209.833ZM207.36 306.992C207.36 303.106 205.594 298.514 201.002 298.514C196.409 298.514 194.29 302.753 194.29 306.992C194.29 311.232 196.409 315.118 201.002 315.118C205.241 315.118 207.36 311.232 207.36 306.992ZM214.425 289.329H216.898V293.215H214.425V289.329ZM214.425 297.101H216.898V317.237H214.425V297.101ZM221.844 297.101H224.317V300.634C225.376 298.161 227.849 296.394 230.675 296.394C236.327 296.394 238.094 299.22 238.094 304.166V317.237H235.621V304.519C235.621 300.987 234.561 298.514 230.322 298.514C226.436 298.514 223.963 301.34 223.963 305.579V317.591H221.491V297.101H221.844ZM259.995 315.824C259.995 321.83 257.523 325.716 250.811 325.716C246.925 325.716 242.686 323.949 242.333 319.71H244.805C245.512 322.536 247.985 323.596 250.811 323.596C255.403 323.596 257.169 320.77 257.169 315.824V312.998C256.109 315.471 253.637 317.237 250.811 317.237C244.452 317.237 241.626 312.645 241.626 306.639C241.626 300.987 244.805 296.394 250.811 296.394C253.637 296.394 256.109 298.161 257.169 300.634V297.101H259.642V315.824H259.995ZM257.523 306.992C257.523 303.106 255.756 298.514 251.164 298.514C246.572 298.514 244.452 302.753 244.452 306.992C244.452 311.232 246.572 315.118 251.164 315.118C255.403 315.118 257.523 311.232 257.523 306.992ZM277.305 308.052C277.305 311.585 279.071 316.177 284.017 316.177C287.549 316.177 289.669 314.058 290.375 310.878H292.848C291.788 315.471 288.962 318.297 284.017 318.297C277.658 318.297 274.832 313.351 274.832 307.699C274.832 302.4 277.658 297.101 284.017 297.101C290.375 297.101 293.201 302.753 292.848 308.406H277.305V308.052ZM290.375 305.933C290.375 302.047 287.902 298.867 284.017 298.867C280.131 298.867 277.658 302.4 277.305 305.933H290.375ZM296.027 297.101H298.5V300.634C299.56 298.161 302.033 296.394 304.859 296.394C310.511 296.394 312.277 299.22 312.277 304.166V317.237H309.804V304.519C309.804 300.987 308.744 298.514 304.505 298.514C300.62 298.514 298.147 301.34 298.147 305.579V317.591H295.674V297.101H296.027ZM318.636 308.052C318.636 311.585 320.402 316.177 325.347 316.177C328.88 316.177 330.999 314.058 331.706 310.878H334.179C333.119 315.471 330.293 318.297 325.347 318.297C318.989 318.297 316.163 313.351 316.163 307.699C316.163 302.4 318.989 297.101 325.347 297.101C331.706 297.101 334.532 302.753 334.179 308.406H318.636V308.052ZM331.706 305.933C331.706 302.047 329.233 298.867 325.347 298.867C321.462 298.867 318.989 302.4 318.636 305.933H331.706ZM337.711 297.101H339.831V301.693C341.244 298.514 343.717 296.394 347.602 296.748V299.22C343.01 298.867 340.184 302.4 340.184 306.639V317.591H337.711V297.101ZM367.385 315.824C367.385 321.83 364.912 325.716 358.2 325.716C354.314 325.716 350.075 323.949 349.722 319.71H352.195C352.901 322.536 355.374 323.596 358.2 323.596C362.792 323.596 364.559 320.77 364.559 315.824V312.998C363.499 315.471 361.026 317.237 358.2 317.237C351.841 317.237 349.015 312.645 349.015 306.639C349.015 300.987 352.195 296.394 358.2 296.394C361.026 296.394 363.499 298.161 364.559 300.634V297.101H367.031V315.824H367.385ZM364.559 306.992C364.559 303.106 362.792 298.514 358.2 298.514C353.608 298.514 351.488 302.753 351.488 306.992C351.488 311.232 353.608 315.118 358.2 315.118C362.439 315.118 364.559 311.232 364.559 306.992ZM369.504 297.101H371.977L378.689 314.411L385.047 297.101H387.52L378.689 320.417C377.276 323.949 376.569 324.656 373.39 324.656C372.33 324.656 371.977 324.656 371.624 324.303V322.183C372.33 322.183 372.683 322.536 373.39 322.536C375.509 322.536 376.216 321.123 376.922 319.357L377.629 316.884L369.504 297.101ZM405.183 297.101H409.422V299.22H405.183V312.998C405.183 314.764 405.536 315.471 407.302 315.824H409.422V317.944H407.302C404.123 317.944 402.71 316.884 403.063 313.351V299.574H399.531V297.454H403.063V291.448H405.536V297.101H405.183ZM430.97 307.346C430.97 312.998 427.438 317.944 421.433 317.944C415.074 317.944 411.895 312.998 411.895 307.346C411.895 301.693 415.427 296.748 421.433 296.748C427.438 296.394 430.97 301.34 430.97 307.346ZM414.014 307.346C414.014 311.585 416.487 316.177 421.079 316.177C425.672 316.177 428.144 311.938 428.144 307.346C428.144 302.753 425.672 298.514 421.079 298.514C416.487 298.514 414.014 302.753 414.014 307.346ZM445.454 289.329H447.927V317.591H445.454V289.329ZM452.872 289.329H455.345V293.215H452.872V289.329ZM452.872 297.101H455.345V317.237H452.872V297.101ZM468.062 299.22H464.176V317.591H461.704V299.22H458.171V297.101H461.704V295.334C461.704 291.802 462.763 289.329 466.649 289.329H468.769V291.448C468.062 291.448 467.709 291.095 467.002 291.095C464.176 291.095 464.176 292.862 464.176 294.981V296.748H468.062V299.22ZM471.595 308.052C471.595 311.585 473.361 316.177 478.307 316.177C481.839 316.177 483.959 314.058 484.665 310.878H487.138C486.078 315.471 483.252 318.297 478.307 318.297C471.948 318.297 469.122 313.351 469.122 307.699C469.122 302.4 471.948 297.101 478.307 297.101C484.665 297.101 487.491 302.753 487.138 308.406H471.595V308.052ZM485.018 305.933C485.018 302.047 482.546 298.867 478.66 298.867C474.774 298.867 472.301 302.4 471.948 305.933H485.018Z" fill="#26BBD6"/>
</svg>
