<svg xmlns="http://www.w3.org/2000/svg" viewBox="0 0 169 107" enable-background="new 0 0 169 107"><path fill="#fff" d="M0 0h169v107H0z"/><path fill="#183481" d="M74.5 61.9c.7 0 1.3.1 1.7.3.5.2.8.6 1 1 .2.4.3.9.4 1.4v12.2h4.5V66c0-.7 0-1.4-.1-2.1 0-.7-.1-1.4-.2-2-.1-.5-.2-1-.5-1.4-.2-.4-.5-.8-1-1.1-.4-.3-.9-.6-1.6-.8-.6-.2-1.4-.3-2.3-.3-1.4 0-2.6.3-3.5.8-.9.5-1.7 1.1-2.2 1.7l-.5.6-.2-.7c-.3-.6-.8-1.2-1.5-1.7s-1.7-.7-3.1-.7c-1.5 0-2.7.2-3.6.7-.9.5-1.5 1-2 1.6l-.6.9-.2-1.1c-.1-.6-.4-1-.9-1.3-.6-.3-1.2-.4-2-.4h-.7c-.2 0-.4 0-.5.1h-.1v18.1h4.5V64.4c0-.8.4-1.4 1.1-1.9.7-.5 1.6-.7 2.6-.7.8 0 1.4.1 1.8.4.5.2.8.6 1.1 1 .2.4.3.9.4 1.5V77h4.5V66.3c0-.8 0-1.6-.1-2.3v-.2l.1-.1c.3-.5.8-.8 1.5-1.2.7-.5 1.4-.6 2.2-.6M89.8 62.6c.8-.8 1.8-1.1 3-1.1 1.5 0 2.5.4 3.1 1.2.6.8.9 1.8.9 3.1h-8.1c0-1.4.4-2.4 1.1-3.2m10.7 12.3c0-.2-.1-.6-.5-1.3-.2-.4-.4-.8-.7-1.1-.1.1-.3.2-.4.4-.3.3-.7.5-1.1.8-.4.2-.9.4-1.5.6-.5.2-1.2.2-1.9.2-1.9 0-3.3-.6-4.2-1.6-.9-1-1.4-2.4-1.5-3.9v-.5h11.9v-2.1c0-1.1-.1-2.1-.4-3.1-.3-.9-.7-1.8-1.3-2.5-.6-.7-1.4-1.3-2.4-1.8-1-.4-2.2-.7-3.6-.7-1.1 0-2.2.2-3.2.5-1 .4-2 .9-2.8 1.7-.8.8-1.5 1.7-2 2.9s-.7 2.6-.7 4.2c0 2 .3 3.6.8 4.9.6 1.3 1.3 2.3 2.2 3.1.9.8 1.9 1.3 3.1 1.6 1.2.3 2.4.5 3.6.5 1.3 0 2.5-.1 3.5-.4 1-.3 1.7-.6 2.2-1 .6-.6.9-1 .9-1.4M41.7 62.6c.8-.8 1.8-1.1 3-1.1 1.5 0 2.5.4 3.1 1.2.6.8.9 1.8.9 3.1h-8.1c0-1.4.3-2.4 1.1-3.2m10.7 12.3c0-.2-.1-.6-.5-1.3-.2-.4-.4-.8-.7-1.1-.1.1-.3.2-.4.4-.3.3-.7.5-1.1.8-.4.2-.9.4-1.5.6-.5.2-1.2.2-1.9.2-1.9 0-3.3-.6-4.2-1.6-.9-1-1.4-2.4-1.5-3.9v-.5h11.9v-2.1c0-1.1-.1-2.1-.4-3.1-.3-.9-.7-1.8-1.3-2.5-.6-.7-1.4-1.3-2.4-1.8-1-.4-2.2-.7-3.6-.7-1.1 0-2.2.2-3.2.5-1 .4-2 .9-2.8 1.7-.8.8-1.5 1.7-2 2.9s-.7 2.6-.7 4.2c0 2 .3 3.6.8 4.9.6 1.3 1.3 2.3 2.2 3.1.9.8 1.9 1.3 3.1 1.6 1.2.3 2.4.5 3.6.5 1.3 0 2.5-.1 3.5-.4 1-.3 1.7-.6 2.2-1 .6-.6.9-1 .9-1.4M111.6 61.7c.8 0 1.4.1 1.9.4.5.3.8.6 1.1 1.1.2.4.3.9.4 1.5 0 .5.1 1.1.1 1.7V77h4.5V66c0-.7 0-1.4-.1-2.1 0-.7-.1-1.4-.3-1.9-.2-1.1-.8-2-1.6-2.7-.8-.7-2.1-1-3.9-1-1.5 0-2.7.2-3.6.7-.9.5-1.5 1-2 1.6l-.6.9-.2-1.1c-.1-.6-.4-1-.9-1.3-.6-.3-1.2-.4-2-.4h-.7c-.2 0-.4 0-.5.1h-.1v18.1h4.5V64.4c0-.8.4-1.5 1.3-2 .6-.5 1.6-.7 2.7-.7M133 70.9c-.4.8-.9 1.3-1 1.4-.2.2-.6.6-.9.8-.3.2-.7.4-1.1.5-.4.1-.9.2-1.4.2-.9 0-1.5-.2-1.8-.6-.4-.4-.6-1-.6-1.7 0-.6.1-1 .4-1.4.3-.4.7-.7 1.1-.9.5-.3 1-.4 1.7-.5.7-.1 1.3-.2 2-.2h.5l1.1-.1v2.5zm4.2 1.8v-7.6c0-1.2-.1-2.2-.4-3.1-.2-.8-.7-1.5-1.2-2.1-.6-.6-1.3-1-2.2-1.2-1-.3-2.1-.4-3.5-.4-1 0-2 .1-2.9.3-.9.2-1.7.4-2.4.7-.7.3-1.2.5-1.6.9-.3.2-.4.5-.4.7 0 .1 0 .4.3 1 .2.4.4.7.6 1.1.7-.4 1.5-.8 2.3-1.1 1-.4 2.1-.6 3.3-.6 1.4 0 2.3.2 3 .8.7.5 1 1.4 1 2.6v1.2h-2.2c-.9.1-2 .2-3.1.4s-2.1.5-3.1 1c-.9.5-1.7 1.1-2.3 1.9-.6.8-.9 1.8-.9 3 0 1 .2 1.9.5 2.6.3.7.8 1.3 1.3 1.7.5.4 1.1.7 1.8.9.7.2 1.4.3 2 .3 1.3 0 2.4-.2 3.3-.6.9-.4 1.6-.9 2.2-1.5l.7-.7.2.9c.1.6.4 1 .8 1.3.4.3 1 .5 1.9.5.4 0 .8 0 1.2-.1.2 0 .5-.1.7-.2-.6-1.3-.9-2.7-.9-4.6M32.8 78.2c.5-1.1.8-2.3 1-3.5.1-1.3.2-2.5.2-3.5V56.6c0-.6-.1-1-.3-1.4-.2-.3-.4-.6-.7-.8-.3-.2-.7-.3-1-.4-.4-.1-.8-.1-1.1-.1h-.5c-.4.1-.6.1-.8.1h-.3v19.4c0 1-.1 1.9-.4 2.5-.3.7-.7 1.2-1.2 1.7-.5.4-1.1.7-1.8.9l-1.8.3v.5c0 .3 0 .6.1.8.1.7.3 1.2.6 1.4.3.3.9.4 1.7.4 1.7 0 3.1-.4 4-1.1 1-.6 1.8-1.6 2.3-2.6"/><path stroke="#231F20" stroke-width=".08" d="M118.3 45.5z" fill="none"/><path fill="#26BBD6" d="M126.5 14.5c.2 1.2.3 2.5.3 3.8 0 14.3-11.6 26-26 26h-1.4c3.7 5.5 10 9.2 17.2 9.2 11.4 0 20.7-9.3 20.7-20.7 0-7.9-4.4-14.8-10.8-18.3"/><path fill="#183481" d="M126.5 14.5c.2 1.2.3 2.5.3 3.8 0 4.8-1.3 9.3-3.6 13.2 3.9 4.1 6.4 9.6 6.4 15.7 0 .6 0 1.1-.1 1.7 4.8-3.8 7.8-9.6 7.8-16.2 0-7.8-4.4-14.7-10.8-18.2"/><path fill="#7DCCE0" d="M125.3 13.9c-2.7-1.2-5.6-1.9-8.8-1.9-11.4 0-20.7 9.3-20.7 20.7 0 .7 0 1.4.1 2.1 2.1.7 4.4 1 6.7 1 12.3 0 22.3-9.7 22.7-21.9"/><path fill="#006CB5" d="M106.9 24.6c4.6 0 8.9 1.4 12.5 3.8 3.5-3.8 5.7-8.9 5.9-14.4-2.7-1.2-5.6-1.9-8.8-1.9-9.5 0-17.5 6.4-19.9 15.1 3.1-1.7 6.6-2.6 10.3-2.6"/><g fill="#26BBD6"><path d="M36.6 81.9h.7v3.3c.3-.8 1.1-1.3 2-1.3 1.7 0 2.6 1.4 2.6 3s-.8 3-2.6 3c-.9 0-1.7-.5-2-1.3v1.1h-.6v-7.8zm2.7 2.6c-1.5 0-2 1.3-2 2.5s.5 2.5 2 2.5c1.3 0 1.9-1.3 1.9-2.5s-.5-2.5-1.9-2.5zM43 84.1h.6v1.3c.4-.9 1.1-1.5 2.2-1.4v.7c-1.3-.1-2.1.9-2.1 2.1v3.1H43v-5.8zM46.5 81.9h.7V83h-.7v-1.1zm0 2.2h.7v5.7h-.7v-5.7zM48.5 84.1h.7v1c.3-.7 1-1.2 1.8-1.2 1.6 0 2.1.8 2.1 2.2v3.7h-.7v-3.6c0-1-.3-1.7-1.5-1.7-1.1 0-1.8.8-1.8 2v3.4h-.7v-5.8zM59.4 89.4c0 1.7-.7 2.8-2.6 2.8-1.1 0-2.3-.5-2.4-1.7h.7c.2.8.9 1.1 1.7 1.1 1.3 0 1.8-.8 1.8-2.2v-.8c-.3.7-1 1.2-1.8 1.2-1.8 0-2.6-1.3-2.6-3 0-1.6.9-2.9 2.6-2.9.8 0 1.5.5 1.8 1.2v-1h.7v5.3zm-.7-2.5c0-1.1-.5-2.4-1.8-2.4S55 85.7 55 86.9s.6 2.3 1.9 2.3c1.2 0 1.8-1.1 1.8-2.3zM60.7 81.9h.7V83h-.7v-1.1zm0 2.2h.7v5.7h-.7v-5.7zM62.8 84.1h.7v1c.3-.7 1-1.2 1.8-1.2 1.6 0 2.1.8 2.1 2.2v3.7h-.7v-3.6c0-1-.3-1.7-1.5-1.7-1.1 0-1.8.8-1.8 2v3.4h-.7v-5.8zM73.6 89.4c0 1.7-.7 2.8-2.6 2.8-1.1 0-2.3-.5-2.4-1.7h.7c.2.8.9 1.1 1.7 1.1 1.3 0 1.8-.8 1.8-2.2v-.8c-.3.7-1 1.2-1.8 1.2-1.8 0-2.6-1.3-2.6-3 0-1.6.9-2.9 2.6-2.9.8 0 1.5.5 1.8 1.2v-1h.7v5.3zm-.7-2.5c0-1.1-.5-2.4-1.8-2.4s-1.9 1.2-1.9 2.4.6 2.3 1.9 2.3c1.2 0 1.8-1.1 1.8-2.3zM78.5 87.2c0 1 .5 2.3 1.9 2.3 1 0 1.6-.6 1.8-1.5h.7c-.3 1.3-1.1 2.1-2.5 2.1-1.8 0-2.6-1.4-2.6-3 0-1.5.8-3 2.6-3s2.6 1.6 2.5 3.2h-4.4zm3.7-.6c0-1.1-.7-2-1.8-2s-1.8 1-1.9 2h3.7zM83.8 84.1h.7v1c.3-.7 1-1.2 1.8-1.2 1.6 0 2.1.8 2.1 2.2v3.7h-.7v-3.6c0-1-.3-1.7-1.5-1.7-1.1 0-1.8.8-1.8 2v3.4h-.7v-5.8zM90.2 87.2c0 1 .5 2.3 1.9 2.3 1 0 1.6-.6 1.8-1.5h.7c-.3 1.3-1.1 2.1-2.5 2.1-1.8 0-2.6-1.4-2.6-3 0-1.5.8-3 2.6-3s2.6 1.6 2.5 3.2h-4.4zm3.7-.6c0-1.1-.7-2-1.8-2s-1.8 1-1.9 2h3.7zM95.6 84.1h.6v1.3c.4-.9 1.1-1.5 2.2-1.4v.7c-1.3-.1-2.1.9-2.1 2.1v3.1h-.7v-5.8zM104 89.4c0 1.7-.7 2.8-2.6 2.8-1.1 0-2.3-.5-2.4-1.7h.7c.2.8.9 1.1 1.7 1.1 1.3 0 1.8-.8 1.8-2.2v-.8c-.3.7-1 1.2-1.8 1.2-1.8 0-2.6-1.3-2.6-3 0-1.6.9-2.9 2.6-2.9.8 0 1.5.5 1.8 1.2v-1h.7v5.3zm-.8-2.5c0-1.1-.5-2.4-1.8-2.4s-1.9 1.2-1.9 2.4.6 2.3 1.9 2.3c1.2 0 1.8-1.1 1.8-2.3zM104.6 84.1h.7l1.9 4.9 1.8-4.9h.7l-2.5 6.6c-.4 1-.6 1.2-1.5 1.2-.3 0-.4 0-.5-.1v-.6c.2 0 .3.1.5.1.6 0 .8-.4 1-.9l.2-.7-2.3-5.6zM114.7 84.1h1.2v.6h-1.2v3.9c0 .5.1.7.6.8h.6v.6h-.6c-.9 0-1.3-.3-1.2-1.3v-3.9h-1v-.6h1v-1.7h.7v1.6zM122 87c0 1.6-1 3-2.7 3-1.8 0-2.7-1.4-2.7-3s1-3 2.7-3c1.7-.1 2.7 1.3 2.7 3zm-4.8 0c0 1.2.7 2.5 2 2.5s2-1.2 2-2.5-.7-2.5-2-2.5-2 1.2-2 2.5zM126.1 81.9h.7v8h-.7v-8zM128.2 81.9h.7V83h-.7v-1.1zm0 2.2h.7v5.7h-.7v-5.7zM132.5 84.7h-1.1v5.2h-.7v-5.2h-1v-.6h1v-.5c0-1 .3-1.7 1.4-1.7h.6v.6c-.2 0-.3-.1-.5-.1-.8 0-.8.5-.8 1.1v.5h1.1v.7zM133.5 87.2c0 1 .5 2.3 1.9 2.3 1 0 1.6-.6 1.8-1.5h.7c-.3 1.3-1.1 2.1-2.5 2.1-1.8 0-2.6-1.4-2.6-3 0-1.5.8-3 2.6-3s2.6 1.6 2.5 3.2h-4.4zm3.8-.6c0-1.1-.7-2-1.8-2s-1.8 1-1.9 2h3.7z"/></g></svg>