<svg width="99" height="71" fill="none" xmlns="http://www.w3.org/2000/svg">
    <path d="M43.768 43.935c.608 0 1.13.088 1.477.264.434.175.695.527.868.878.174.352.26.791.348 1.23v10.72h3.907v-9.49c0-.615 0-1.23-.086-1.845 0-.615-.087-1.23-.174-1.757-.087-.44-.174-.879-.434-1.23a2.268 2.268 0 0 0-.869-.967 4.125 4.125 0 0 0-1.39-.703c-.52-.176-1.215-.263-1.997-.263-1.215 0-2.258.263-3.04.703-.78.439-1.475.966-1.91 1.493l-.434.527-.173-.615c-.261-.527-.695-1.054-1.303-1.493-.608-.44-1.476-.615-2.692-.615-1.303 0-2.345.175-3.127.615-.781.439-1.302.878-1.736 1.405l-.521.791-.174-.966c-.087-.527-.348-.879-.782-1.142-.52-.264-1.042-.352-1.736-.352h-.608c-.174 0-.348 0-.435.088h-.087v15.904h3.908V46.132c0-.703.348-1.23.956-1.67.608-.44 1.39-.615 2.258-.615.694 0 1.215.088 1.563.352.434.175.694.527.955.878.174.352.26.791.347 1.318v10.808h3.908v-9.402c0-.703 0-1.406-.087-2.02v-.177l.087-.087c.26-.44.695-.703 1.303-1.055.608-.44 1.216-.527 1.91-.527zm13.287.615c.695-.703 1.563-.967 2.605-.967 1.303 0 2.172.352 2.693 1.055.52.703.781 1.581.781 2.724H56.1c0-1.23.347-2.11.955-2.812zm9.292 10.808c0-.176-.087-.527-.434-1.142-.173-.352-.347-.703-.608-.967-.087.088-.26.176-.347.351-.26.264-.608.44-.955.703-.348.176-.782.352-1.303.528-.434.175-1.042.175-1.65.175-1.65 0-2.866-.527-3.647-1.406-.782-.878-1.216-2.108-1.303-3.426v-.44h10.334V47.89c0-.967-.087-1.845-.347-2.724-.26-.79-.608-1.582-1.13-2.197-.52-.615-1.215-1.142-2.083-1.581a8.26 8.26 0 0 0-3.127-.615c-.955 0-1.91.175-2.779.439-.868.351-1.736.79-2.431 1.494-.695.703-1.303 1.494-1.737 2.548-.434 1.054-.608 2.285-.608 3.69 0 1.758.26 3.164.695 4.306.52 1.142 1.129 2.021 1.91 2.724.782.703 1.65 1.142 2.693 1.406 1.042.264 2.084.44 3.126.44 1.129 0 2.17-.089 3.04-.352.868-.264 1.476-.527 1.91-.879.52-.527.781-.879.781-1.23zM15.284 44.55c.695-.703 1.563-.967 2.606-.967 1.302 0 2.17.352 2.692 1.055.52.703.781 1.581.781 2.724H14.33c0-1.23.26-2.11.955-2.812zm9.292 10.808c0-.176-.087-.527-.434-1.142-.174-.352-.347-.703-.608-.967-.087.088-.26.176-.347.351-.26.264-.608.44-.955.703a10.04 10.04 0 0 1-1.303.528c-.434.175-1.042.175-1.65.175-1.65 0-2.866-.527-3.647-1.406-.782-.878-1.216-2.108-1.303-3.426v-.44h10.334V47.89c0-.967-.087-1.845-.347-2.724-.26-.79-.608-1.582-1.13-2.197-.52-.615-1.215-1.142-2.083-1.581a8.26 8.26 0 0 0-3.127-.615c-.955 0-1.91.175-2.779.439-.868.351-1.736.79-2.431 1.494-.695.703-1.303 1.494-1.737 2.548-.434 1.054-.608 2.285-.608 3.69 0 1.758.26 3.164.695 4.306.52 1.142 1.129 2.021 1.91 2.724.782.703 1.65 1.142 2.692 1.406 1.043.264 2.085.44 3.127.44 1.129 0 2.17-.089 3.04-.352.868-.264 1.475-.527 1.91-.879.52-.527.781-.879.781-1.23zm51.41-11.599c.696 0 1.217.088 1.65.352.435.263.696.527.956.966.174.352.26.791.347 1.318 0 .44.087.967.087 1.494v9.314h3.908v-9.666c0-.615 0-1.23-.087-1.845 0-.615-.087-1.23-.26-1.67-.174-.966-.695-1.757-1.39-2.372-.694-.615-1.823-.878-3.386-.878-1.303 0-2.345.175-3.127.615-.781.439-1.302.878-1.737 1.405l-.52.791-.174-.966c-.087-.527-.348-.879-.782-1.142-.521-.264-1.042-.352-1.737-.352h-.608c-.173 0-.347 0-.434.088h-.087v15.904h3.908V46.132c0-.703.347-1.318 1.13-1.758.52-.44 1.389-.615 2.344-.615zm18.585 8.084a4.793 4.793 0 0 1-.868 1.23c-.174.176-.521.527-.782.703-.26.176-.608.352-.955.44a5.068 5.068 0 0 1-1.216.175c-.782 0-1.303-.175-1.563-.527-.347-.351-.521-.879-.521-1.494 0-.527.087-.878.347-1.23a2.72 2.72 0 0 1 .955-.79c.435-.264.869-.352 1.477-.44.608-.088 1.129-.176 1.737-.176h.434l.955-.088v2.197zm3.647 1.582v-6.678c0-1.055-.086-1.933-.347-2.724-.174-.703-.608-1.318-1.042-1.846a3.74 3.74 0 0 0-1.91-1.054c-.869-.264-1.824-.351-3.04-.351-.869 0-1.737.087-2.519.263-.781.176-1.476.352-2.084.615-.608.264-1.042.44-1.39.791a.764.764 0 0 0-.346.615c0 .088 0 .352.26.879.174.351.347.615.521.966a14.049 14.049 0 0 1 1.997-.966c.869-.352 1.824-.527 2.866-.527 1.216 0 1.998.175 2.606.703.607.439.868 1.23.868 2.284v1.055h-1.91c-.782.087-1.738.175-2.693.351-.955.176-1.823.44-2.692.879-.781.44-1.476.966-1.997 1.67-.521.702-.782 1.581-.782 2.635 0 .88.174 1.67.434 2.285.26.615.695 1.142 1.13 1.494a4.39 4.39 0 0 0 1.563.79 6.418 6.418 0 0 0 1.736.264c1.13 0 2.085-.175 2.866-.527a6.186 6.186 0 0 0 1.91-1.318l.609-.615.173.79c.087.528.348.88.695 1.143.347.264.868.44 1.65.44.347 0 .695 0 1.042-.089.174 0 .434-.087.608-.175-.521-1.142-.782-2.373-.782-4.042zM7.555 58.258c.434-.967.695-2.021.869-3.076.087-1.142.173-2.197.173-3.075v-12.83c0-.526-.086-.878-.26-1.23-.174-.263-.348-.527-.608-.702-.26-.176-.608-.264-.868-.352-.348-.088-.695-.088-.956-.088h-.434c-.347.088-.521.088-.695.088h-.26V54.04c0 .879-.087 1.67-.348 2.197-.26.615-.607 1.054-1.042 1.493a4.388 4.388 0 0 1-1.563.791L0 58.785v.44c0 .263 0 .526.087.702.087.615.26 1.055.52 1.23.261.264.782.352 1.477.352 1.477 0 2.692-.352 3.474-.967.868-.527 1.563-1.406 1.997-2.284z" fill="#fff"/>
    <path d="M89.826 5.125c0-.81-.042-1.62-.126-2.404 4.904 3.148 8.214 8.813 8.214 15.254 0 9.838-7.837 17.845-17.417 17.845-5.715 0-10.762-2.84-13.931-7.154h.255c12.753 0 23.005-10.605 23.005-23.541z" fill="#fff" stroke="#fff"/>
    <path d="M88.992 1.757c.174 1.063.261 2.214.261 3.365 0 4.25-1.134 8.236-3.14 11.69 3.402 3.63 5.583 8.5 5.583 13.902 0 .53 0 .974-.087 1.505 4.188-3.365 6.805-8.5 6.805-14.345 0-6.907-3.839-13.017-9.422-16.117z" fill="#fff"/>
    <path d="M88.992 1.757c.174 1.063.261 2.214.261 3.365 0 4.25-1.134 8.236-3.14 11.69 3.402 3.63 5.583 8.5 5.583 13.902 0 .53 0 .974-.087 1.505 4.188-3.365 6.805-8.5 6.805-14.345 0-6.907-3.839-13.017-9.422-16.117z" stroke="#fff"/>
    <path d="M87.87 1.684C85.51.62 82.977 0 80.18 0c-9.96 0-18.086 8.24-18.086 18.342 0 .62 0 1.24.087 1.86 1.835.62 3.844.887 5.854.887 10.747 0 19.484-8.595 19.834-19.405z" fill="#fff"/>
    <path d="M87.87 1.684C85.51.62 82.977 0 80.18 0c-9.96 0-18.086 8.24-18.086 18.342 0 .62 0 1.24.087 1.86 1.835.62 3.844.887 5.854.887 10.747 0 19.484-8.595 19.834-19.405z" stroke="#fff"/>
    <path d="M72.096 10.782c3.944 0 7.63 1.207 10.716 3.277 3-3.277 4.886-7.676 5.058-12.42C85.555.604 83.07 0 80.326 0c-8.144 0-15.002 5.52-17.06 13.024 2.658-1.466 5.658-2.242 8.83-2.242z" fill="#fff"/>
    <path d="M72.096 10.782c3.944 0 7.63 1.207 10.716 3.277 3-3.277 4.886-7.676 5.058-12.42C85.555.604 83.07 0 80.326 0c-8.144 0-15.002 5.52-17.06 13.024 2.658-1.466 5.658-2.242 8.83-2.242z" stroke="#fff"/>
    <path d="M11.073 61.636h.607v2.921c.26-.708.953-1.15 1.732-1.15 1.473 0 2.252 1.239 2.252 2.655 0 1.416-.693 2.655-2.252 2.655-.78 0-1.473-.443-1.732-1.15v.973h-.52v-6.904h-.087zm2.34 2.301c-1.3 0-1.733 1.151-1.733 2.213s.433 2.213 1.732 2.213c1.126 0 1.646-1.15 1.646-2.213 0-1.062-.433-2.213-1.646-2.213zm3.204-.353h.52v1.15c.347-.796.953-1.327 1.906-1.239v.62c-1.126-.089-1.82.796-1.82 1.858v2.744h-.606v-5.133zm3.032-1.948h.607v.974h-.607v-.974zm0 1.947h.607v5.045h-.607v-5.044zm1.733 0h.606v.886c.26-.62.867-1.062 1.56-1.062 1.386 0 1.819.708 1.819 1.947v3.274h-.607v-3.186c0-.885-.26-1.504-1.3-1.504-.952 0-1.558.707-1.558 1.77v3.009h-.607v-5.133h.087zm9.442 4.691c0 1.505-.606 2.478-2.252 2.478-.953 0-1.992-.442-2.08-1.504h.607c.174.708.78.973 1.473.973 1.126 0 1.56-.708 1.56-1.947v-.708c-.26.62-.867 1.062-1.56 1.062-1.56 0-2.252-1.15-2.252-2.655 0-1.416.78-2.566 2.252-2.566.693 0 1.3.442 1.56 1.062v-.885h.606v4.69h.086zm-.606-2.212c0-.974-.433-2.124-1.56-2.124-1.126 0-1.645 1.062-1.645 2.124s.52 2.035 1.646 2.035c1.04 0 1.559-.973 1.559-2.035zm1.732-4.426h.607v.974h-.607v-.974zm0 1.947h.607v5.045h-.607v-5.044zm1.82 0h.606v.886c.26-.62.866-1.062 1.56-1.062 1.385 0 1.818.708 1.818 1.947v3.274h-.606v-3.186c0-.885-.26-1.504-1.3-1.504-.952 0-1.559.707-1.559 1.77v3.009h-.606v-5.133h.087zm9.355 4.691c0 1.505-.606 2.478-2.252 2.478-.953 0-1.992-.442-2.08-1.504h.607c.174.708.78.973 1.473.973 1.126 0 1.56-.708 1.56-1.947v-.708c-.26.62-.867 1.062-1.56 1.062-1.56 0-2.252-1.15-2.252-2.655 0-1.416.78-2.566 2.252-2.566.693 0 1.3.442 1.56 1.062v-.885h.606v4.69h.086zm-.606-2.212c0-.974-.433-2.124-1.56-2.124-1.126 0-1.645 1.062-1.645 2.124s.52 2.035 1.646 2.035c1.04 0 1.559-.973 1.559-2.035zm4.851.265c0 .885.433 2.036 1.646 2.036.866 0 1.386-.531 1.56-1.328h.606c-.26 1.15-.953 1.859-2.166 1.859-1.56 0-2.252-1.24-2.252-2.655 0-1.328.693-2.656 2.252-2.656 1.56 0 2.252 1.417 2.166 2.833H47.37v-.089zm3.205-.53c0-.974-.606-1.771-1.559-1.771s-1.56.885-1.646 1.77h3.205zm1.386-2.213h.607v.885c.26-.62.866-1.062 1.559-1.062 1.386 0 1.82.708 1.82 1.947v3.274h-.607v-3.186c0-.885-.26-1.504-1.3-1.504-.953 0-1.559.707-1.559 1.77v3.009h-.606v-5.133h.086zm5.544 2.743c0 .885.434 2.036 1.646 2.036.867 0 1.386-.531 1.56-1.328h.606c-.26 1.15-.953 1.859-2.166 1.859-1.559 0-2.252-1.24-2.252-2.655 0-1.328.693-2.656 2.252-2.656 1.56 0 2.253 1.417 2.166 2.833h-3.812v-.089zm3.206-.53c0-.974-.607-1.771-1.56-1.771-.953 0-1.559.885-1.646 1.77h3.206zm1.472-2.213h.52v1.15c.347-.796.953-1.327 1.906-1.239v.62c-1.126-.089-1.82.796-1.82 1.858v2.744h-.606v-5.133zm7.277 4.69c0 1.505-.606 2.478-2.252 2.478-.953 0-1.993-.442-2.08-1.504h.607c.173.708.78.973 1.473.973 1.126 0 1.559-.708 1.559-1.947v-.708c-.26.62-.866 1.062-1.56 1.062-1.559 0-2.252-1.15-2.252-2.655 0-1.416.78-2.566 2.253-2.566.693 0 1.3.442 1.559 1.062v-.885h.606v4.69h.087zm-.693-2.212c0-.974-.433-2.124-1.56-2.124-1.125 0-1.645 1.062-1.645 2.124s.52 2.035 1.646 2.035c1.04 0 1.559-.973 1.559-2.035zm1.213-2.478h.606l1.646 4.336 1.56-4.337h.606l-2.166 5.842c-.346.885-.52 1.062-1.3 1.062-.26 0-.346 0-.433-.089v-.53c.174 0 .26.088.434.088.52 0 .693-.354.866-.797l.173-.62-1.992-4.956zm8.75 0h1.039v.53h-1.04v3.452c0 .443.087.62.52.708h.52v.531h-.52c-.78 0-1.126-.265-1.04-1.15v-3.452h-.866v-.531h.866v-1.505h.607v1.416h-.087zm6.323 2.566c0 1.416-.866 2.655-2.339 2.655-1.56 0-2.339-1.239-2.339-2.655 0-1.416.866-2.655 2.339-2.655 1.473-.088 2.339 1.15 2.339 2.655zm-4.158 0c0 1.062.606 2.213 1.732 2.213 1.127 0 1.733-1.062 1.733-2.213 0-1.15-.606-2.213-1.733-2.213-1.126 0-1.732 1.063-1.732 2.213zm7.71-4.514h.606v7.08h-.606v-7.08zm1.819 0h.606v.974h-.606v-.974zm0 1.947h.606v5.045h-.606v-5.044zm3.725.532h-.953v4.602h-.606v-4.602h-.867v-.531h.867v-.443c0-.885.26-1.505 1.212-1.505h.52v.531c-.173 0-.26-.088-.433-.088-.693 0-.693.442-.693.973v.443h.953v.62zm.866 2.212c0 .885.433 2.036 1.646 2.036.866 0 1.386-.531 1.56-1.328h.606c-.26 1.15-.953 1.859-2.166 1.859-1.56 0-2.252-1.24-2.252-2.655 0-1.328.693-2.656 2.252-2.656 1.56 0 2.252 1.417 2.166 2.833h-3.812v-.089zm3.292-.53c0-.974-.606-1.771-1.56-1.771-.952 0-1.559.885-1.645 1.77h3.205z" fill="#fff"/>
</svg>
